<svg width="100" height="100" version="1.1" viewBox="0 0 100 100">
    <path fill="rgb(0,0,0)" stroke="rgb(0,0,0)" stroke-width="1" opacity="0.9372549019607843" d="M 18.5 4 L 81.5 4 L 85 6.5 L 86 8.5 L 86 91.5 L 83.5 95 L 81.5 96 L 18.5 96 L 15 93.5 L 14 91.5 L 14 8.5 L 16.5 5 L 18.5 4 Z M 20 8 L 18 10 L 18 91 L 20 92 L 81 92 L 82 91 L 82 10 L 81 8 L 20 8 Z " /><path fill="rgb(0,0,0)" stroke="rgb(0,0,0)" stroke-width="1" opacity="0.9372549019607843" d="M 31.5 13 L 35 15.5 L 38 20.5 L 32.5 27 L 29 24.5 L 26 19.5 L 31.5 13 Z " /><path fill="rgb(0,0,0)" stroke="rgb(0,0,0)" stroke-width="1" opacity="0.9372549019607843" d="M 67.5 13 L 71 15.5 L 74 20.5 L 68.5 27 L 65 24.5 L 62 19.5 L 67.5 13 Z " /><path fill="rgb(0,0,0)" stroke="rgb(0,0,0)" stroke-width="1" opacity="0.9372549019607843" d="M 31.5 43 L 35 45.5 L 38 50.5 L 32.5 57 L 29 54.5 L 26 49.5 L 31.5 43 Z " /><path fill="rgb(0,0,0)" stroke="rgb(0,0,0)" stroke-width="1" opacity="0.9372549019607843" d="M 67.5 43 L 71 45.5 L 74 50.5 L 68.5 57 L 65 54.5 L 62 49.5 L 67.5 43 Z " /><path fill="rgb(0,0,0)" stroke="rgb(0,0,0)" stroke-width="1" opacity="0.9372549019607843" d="M 31.5 73 L 35 75.5 L 38 80.5 L 32.5 87 L 29 84.5 L 26 79.5 L 31.5 73 Z " /><path fill="rgb(0,0,0)" stroke="rgb(0,0,0)" stroke-width="1" opacity="0.9372549019607843" d="M 67.5 73 L 71 75.5 L 74 80.5 L 68.5 87 L 65 84.5 L 62 79.5 L 67.5 73 Z " /><path fill="rgb(0,0,0)" stroke="rgb(0,0,0)" stroke-width="1" opacity="0" d="M 0 0 L 100 0 L 100 100 L 0 100 L 0 0 Z M 19 4 L 17 5 L 14 9 L 14 92 L 15 94 L 19 96 L 82 96 L 84 95 L 86 92 L 86 9 L 85 7 L 82 4 L 19 4 Z " /><path fill="rgb(0,0,0)" stroke="rgb(0,0,0)" stroke-width="1" opacity="0" d="M 19.5 8 L 80.5 8 L 82 9.5 L 82 90.5 L 80.5 92 L 19.5 92 L 18 90.5 L 18 9.5 L 19.5 8 Z M 32 13 L 26 20 L 29 25 L 33 27 L 38 21 L 35 16 L 32 13 Z M 68 13 L 62 20 L 65 25 L 69 27 L 74 21 L 71 16 L 68 13 Z M 32 43 L 26 50 L 29 55 L 33 57 L 38 51 L 35 46 L 32 43 Z M 68 43 L 62 50 L 65 55 L 69 57 L 74 51 L 71 46 L 68 43 Z M 32 73 L 26 80 L 29 85 L 33 87 L 38 81 L 35 76 L 32 73 Z M 68 73 L 62 80 L 65 85 L 69 87 L 74 81 L 71 76 L 68 73 Z " /></svg>