<svg width="160" height="160" version="1.1" xmlns="http://www.w3.org/2000/svg"><path fill="rgb(0,0,0)" stroke="rgb(0,0,0)" stroke-width="1" opacity="0" d="M 0 0 L 160 0 L 160 160 L 0 160 L 0 0 Z M 83 26 Q 68 30 61 40 L 57 39 Q 44 38 39 44 Q 30 50 29 63 L 24 64 L 16 69 Q 8 75 5 86 L 5 104 L 11 116 Q 18 125 32 128 L 74 128 L 75 129 L 127 129 Q 140 127 148 119 Q 155 112 158 102 Q 160 82 152 74 Q 144 63 130 60 L 129 52 L 122 40 Q 116 32 107 28 L 101 26 L 83 26 Z " /><path fill="rgb(231,235,238)" stroke="rgb(231,235,238)" stroke-width="1" opacity="1" d="M 88.5 31 Q 108 31 116 42.5 L 120 51.5 L 120 57.5 L 117 59 L 117 52.5 L 115 45.5 L 107.5 38 L 95.5 33 L 82.5 33 Q 73.5 36.5 68 43.5 L 70 48 L 66.5 48 L 59.5 44 L 53.5 44 L 42 53.5 Q 39.2 56.5 40 62 L 37 61.5 Q 40 51 48.5 46 L 55.5 42 L 58.5 42 L 68.5 47 L 68 45.5 L 66 42.5 L 77.5 34 L 88.5 31 Z " /><path fill="rgb(231,235,238)" stroke="rgb(231,235,238)" stroke-width="1" opacity="1" d="M 42.5 62 L 46 63 L 45.5 65 L 35.5 65 Q 26.9 66.9 22 72.5 L 17 80.5 L 16 87.5 Q 17.7 95.8 23.5 100 L 29.5 104 Q 31 101.5 32.5 105 L 41.5 107 L 43.5 107 L 56.5 106 L 57.5 105 L 63.5 107 L 65.5 106 L 69.5 108 L 76.5 109 L 78.5 109 L 96.5 108 L 98.5 109 L 100.5 108 L 102.5 109 L 104.5 108 L 106.5 108 L 110.5 107 L 112.5 107 L 122.5 105 Q 123.7 101.3 128 102 Q 126.9 99.3 129.5 100 L 135 95.5 L 134.5 94 L 136 94.5 L 136 93 Q 139.8 94.5 139 91.5 L 142 87.5 L 142 85.5 L 141 76 L 138 74.5 Q 139.1 71.2 136.5 72 L 135 69 L 129.5 66 L 119.5 64 L 117.5 65 L 115.5 65 L 111.5 66 L 109.5 66 Q 96.2 68.7 89.5 78 L 85.5 75 L 74.5 74 L 70.5 75 L 70.5 74 L 82.5 73 L 90.5 76 Q 97 68 107.5 64 L 115.5 62 L 123.5 62 Q 136.2 65.3 143 74.5 L 147 83.5 L 146 86.5 L 147 88.5 Q 143.5 90 146 91.5 L 144 94.5 L 141 100 L 138 101.5 Q 138.8 103.8 136.5 103 L 131.5 107 L 119.5 111 L 103.5 112 L 101.5 112 L 85.5 111 L 84.5 112 L 70.5 112 L 65.5 110 L 62.5 111 L 61.5 110 L 49.5 109 L 42.5 111 L 40.5 110 L 38.5 110 Q 26 109 19 102.5 L 15 96.5 L 14 87.5 L 15 85.5 L 15 83.5 Q 18.4 72.9 26.5 67 Q 33.2 63.2 44 63.5 L 42.5 62 Z " /><path fill="rgb(231,235,238)" stroke="rgb(231,235,238)" stroke-width="1" opacity="1" d="M 81.5 70 L 84 70.5 L 81.5 71 L 81.5 70 Z " /><path fill="rgb(231,235,238)" stroke="rgb(231,235,238)" stroke-width="1" opacity="1" d="M 61.5 76 L 61.5 79 L 59.5 80 L 60 78.5 L 61.5 76 Z " /><path fill="rgb(192,204,213)" stroke="rgb(192,204,213)" stroke-width="1" opacity="0.9882352941176471" d="M 88.5 26 Q 111.1 26.4 121 39.5 L 128 51.5 L 129 59.5 L 130.5 61 Q 144.1 63.9 151 73.5 L 157 86.5 L 157 101.5 Q 153.3 114.3 143.5 121 Q 136.9 126.4 126.5 128 L 73.5 128 L 72.5 127 L 31.5 127 Q 19.5 124.5 13 116.5 L 6 103.5 L 5 91.5 L 7 82.5 L 14.5 71 L 21.5 66 L 30 62.5 L 31 55.5 L 38.5 45 Q 44.6 39.1 57.5 40 L 57.5 41 L 49.5 42 L 36 54.5 L 33 61.5 L 33.5 63 Q 24.9 64.4 20 69.5 L 12 81.5 L 11 92.5 L 10 93.5 L 15 106.5 L 18.5 110 L 25.5 114 Q 31.6 113.4 34.5 116 L 36.5 116 L 63.5 116 L 64.5 117 L 66.5 116 L 67.5 117 L 85.5 117 L 88.5 116 L 101.5 116 L 102.5 117 L 103.5 116 L 112.5 116 L 117.5 117 L 118.5 116 L 127.5 116 L 135.5 113 L 147 105 Q 152.9 98.7 152 84.5 Q 149.4 73.6 141.5 68 Q 134.8 61.1 124 60 Q 123.2 40.9 110.5 33 L 100.5 29 Q 93.7 30.3 90.5 28 L 78.5 31 L 64 40.5 L 66 43.5 L 64.5 44 L 60 41.5 L 70.5 32 L 76.5 29 L 88.5 26 Z " /><path fill="rgb(192,204,213)" stroke="rgb(192,204,213)" stroke-width="1" opacity="0.9882352941176471" d="M 97.5 67 L 95.5 70 L 97.5 67 Z " /><path fill="rgb(248,249,250)" stroke="rgb(248,249,250)" stroke-width="1" opacity="1" d="M 82.5 38 L 94.5 39 L 106 45.5 L 105 50.5 L 108 55.5 L 106 56.5 L 108 57 L 109 59.5 L 106 60 L 105.5 62 L 103.5 61 L 103.5 63 L 101.5 62 L 98.5 64 L 99.5 62 L 103 60.5 L 97 60 L 98 57.5 L 97 55 L 99.5 56 L 100.5 54 L 99 53.5 L 101 50 L 98.5 51 L 98 49.5 Q 101.7 47.7 98.5 46 Q 96.3 46.8 97 44.5 Q 99.2 43.3 96.5 42 Q 91.2 42.8 89.5 40 L 86.5 41 Q 81.3 39.8 80 42.5 Q 81.3 46.3 77.5 45 L 77.5 47 Q 74.2 45.9 75 48.5 L 71 53.5 L 74 57.5 L 74 59.5 L 73 63 Q 69.7 61.7 71 66.5 Q 72.3 69.3 73.5 67 L 77.5 67 L 84 69.5 L 81.5 70 L 73.5 68 L 68.5 71 L 67.5 68 L 65 69 L 63.5 72 L 57 76.5 L 58 78.5 L 57 81 L 55 80.5 L 56 78.5 L 56 76.5 L 52.5 73 L 42.5 71 L 40.5 71 Q 30.1 69.6 27 75.5 L 27 83.5 L 28.5 84 Q 31.3 85.2 29 86.5 L 33 90.5 Q 32.3 92.8 34.5 92 L 34.5 93 L 33 93.5 L 37 94 Q 35.9 96.7 38.5 96 L 42.5 98 Q 44 95.5 45.5 99 L 52 97 L 52.5 94 L 55 95 L 56 90.5 L 53 91.5 L 55.5 82 L 58.5 83 L 65.5 80 L 72.5 82 L 77.5 81 L 85 84 Q 83.9 86.7 86.5 86 L 92.5 77 L 104.5 71 L 117.5 69 L 120.5 70 Q 127.1 69.4 129 73.5 L 129 75 L 131 75.5 L 131 82.5 L 130.5 85 L 128.5 84 L 125.5 89 Q 121.8 87.8 123 91.5 L 121 91.5 Q 122.3 95.3 118.5 94 L 105.5 99 Q 104 96.5 102.5 100 Q 98.1 103.1 89.5 102 L 88 101.5 Q 88.9 104.5 84.5 103 L 81.5 104 L 73.5 101 Q 72 103.5 70.5 100 L 61.5 96 L 60.5 98 L 58.5 97 L 48.5 101 L 43.5 101 L 38.5 99 L 37 99.5 L 37.5 98 L 29 93.5 L 30 91.5 L 28 91.5 L 27.5 89 L 26 89.5 L 24 86.5 L 23 77.5 L 26.5 73 Q 28.8 73.8 28 71.5 Q 32 68 39.5 68 L 45.5 70 L 47.5 70 L 53.5 72 Q 56.5 70.4 55 65 L 46 59.5 L 45 55.5 L 51.5 48 L 58.5 47 L 64 50.5 L 67.5 55 L 70 54 L 73 49.5 Q 72 45 74.5 44 Q 76.8 44.8 76 42.5 L 78 39 L 82.5 38 Z M 54 48 L 51 49 Q 52 54 47 56 L 48 60 L 54 64 L 56 64 L 58 64 L 59 66 L 60 64 L 64 61 Q 66 60 66 57 L 64 55 L 60 49 L 54 48 Z M 99 57 L 100 59 L 102 58 L 99 57 Z M 110 72 Q 108 75 103 73 L 96 76 L 89 83 L 88 89 L 87 90 Q 84 91 85 89 Q 81 85 75 84 L 73 86 L 70 85 Q 65 84 64 86 L 58 85 L 59 88 L 57 91 Q 56 93 59 92 L 61 91 L 60 93 L 61 94 L 64 92 Q 66 91 65 94 L 67 94 L 67 96 L 69 95 L 72 97 L 72 99 L 74 98 L 74 100 Q 79 99 82 102 Q 88 103 90 98 L 90 100 L 93 100 L 104 96 Q 105 93 107 95 Q 106 92 109 93 L 111 93 L 113 91 L 120 89 L 122 86 L 125 84 L 127 84 L 126 82 L 128 77 Q 123 70 110 72 Z " /><path fill="rgb(251,252,252)" stroke="rgb(251,252,252)" stroke-width="1" opacity="1" d="M 87.5 40 L 90.5 41 L 96.5 42 L 98 43.5 L 97 46 L 100 47.5 L 98 50.5 L 99.5 50 Q 101.8 49.3 101 51.5 L 101.5 53 Q 100.3 50.8 99 53.5 L 101 54.5 Q 99.8 57.2 98.5 55 Q 96.3 54.3 97 56.5 L 97 58.5 Q 96.4 61.3 102.5 60 L 105 61.5 L 91.5 71 L 88.5 71 L 81.5 68 L 73.5 67 Q 72.3 69.3 71 66.5 L 71 63 Q 73.7 64.1 73 61.5 L 74 59.5 L 74 57.5 L 73.5 56 L 72 56.5 Q 74.5 55 71 53.5 L 74 50.5 L 75 47 L 78 46.5 L 77.5 45 Q 81.3 46.3 80 42.5 L 81.5 41 Q 86.2 42.3 87.5 40 Z M 100 62 L 99 64 L 101 63 L 100 62 Z " /><path fill="rgb(251,252,252)" stroke="rgb(251,252,252)" stroke-width="1" opacity="1" d="M 53.5 48 L 60 49 L 63.5 55 L 66 56.5 Q 66.5 60.5 63.5 61 L 60 63.5 L 58.5 66 L 57.5 64 L 55.5 64 L 53.5 64 L 48 60 L 47 55.5 Q 51.8 54.1 51 49 L 53.5 48 Z " /><path fill="rgb(251,252,252)" stroke="rgb(251,252,252)" stroke-width="1" opacity="1" d="M 99 57 L 102 57.5 L 99.5 59 L 99 57 Z " /><path fill="rgb(251,252,252)" stroke="rgb(251,252,252)" stroke-width="1" opacity="1" d="M 33.5 71 Q 39.8 69.3 41.5 72 L 43.5 72 L 52.5 73 L 56 76.5 L 56 78.5 L 55 80.5 L 55 82.5 Q 55.6 88.6 53 91.5 L 56 90.5 L 55 95 L 52.5 94 L 52 97 L 45.5 99 Q 44 95.5 42.5 98 L 37 96 Q 38.3 92.7 33.5 94 L 33.5 93 L 35 92.5 L 33 92 L 29 86.5 Q 31.3 85.2 28.5 84 L 27 83.5 L 27 75.5 L 33.5 71 Z " /><path fill="rgb(251,252,252)" stroke="rgb(251,252,252)" stroke-width="1" opacity="1" d="M 109.5 72 Q 123.1 69.9 128 76.5 L 126 81.5 L 127 83.5 L 124.5 84 L 122 85.5 L 123 87.5 Q 121.3 85.9 119.5 89 L 112.5 91 L 109.5 94 L 107 93 L 106.5 95 Q 105 92.5 103.5 96 L 92.5 100 L 90 99.5 L 89.5 98 Q 88.5 103 81.5 102 Q 79.3 99 74 100 L 73.5 98 L 71.5 99 L 71.5 97 L 68.5 95 L 67 95.5 L 67 94 L 65 94 Q 66.1 91.3 63.5 92 L 60.5 94 L 60 92.5 L 61 90.5 L 58.5 92 Q 56.3 92.8 57 90.5 L 59 87.5 L 57.5 85 L 63.5 86 Q 64.8 83.8 69.5 85 L 72.5 86 L 74.5 84 Q 81.4 84.6 85 88.5 Q 84.3 90.8 86.5 90 L 88 88.5 L 89 82.5 L 95.5 76 L 102.5 73 Q 108 74.5 109.5 72 Z " /><path fill="rgb(222,228,233)" stroke="rgb(222,228,233)" stroke-width="1" opacity="1" d="M 90.5 28 Q 93.7 30.3 100.5 29 L 106.5 31 Q 114.7 34.3 119 41.5 Q 124.1 48.7 124 60 Q 138.9 62.9 147 73.5 L 152 84.5 L 152 93.5 L 147 105 L 137.5 112 L 130.5 115 L 113.5 117 L 112.5 116 L 103.5 116 L 101.5 116 L 88.5 116 L 87.5 117 L 85.5 117 L 67.5 117 L 65.5 116 L 63.5 116 L 36.5 116 L 35.5 115 L 33.5 115 L 25.5 114 L 15 106.5 L 10 93.5 L 11 92.5 L 12 81.5 L 21.5 68 L 34 62.5 L 33 60.5 Q 36.9 50.4 45.5 45 Q 49.2 39.7 59.5 41 L 65.5 44 L 64 41.5 L 65.5 39 L 78.5 31 L 90.5 28 Z M 89 31 L 78 34 L 66 43 L 68 46 L 69 47 L 59 42 L 56 42 L 49 46 Q 40 51 37 62 L 44 64 Q 33 63 27 67 Q 18 73 15 84 L 15 86 L 14 88 L 15 97 L 19 103 Q 26 109 39 110 L 41 110 L 43 111 L 50 109 L 62 110 L 63 111 L 66 110 L 71 112 L 85 112 L 86 111 L 102 112 L 104 112 L 120 111 L 132 107 L 137 103 Q 139 104 138 102 L 141 100 L 144 95 L 146 92 Q 143 90 147 89 L 146 87 L 147 84 L 143 75 Q 136 65 124 62 L 116 62 L 108 64 Q 97 68 91 76 L 83 73 Q 69 72 63 78 L 61 78 L 65 74 L 76 70 L 92 72 L 96 68 L 97 69 L 98 67 L 100 67 L 100 66 L 108 61 L 119 59 L 120 58 L 120 52 L 116 43 Q 108 31 89 31 Z " /><path fill="rgb(242,244,246)" stroke="rgb(242,244,246)" stroke-width="1" opacity="1" d="M 81.5 35 Q 87.8 33.3 89.5 36 L 91.5 36 L 98.5 37 L 110 42 L 112 45.5 L 112 49 L 114 49.5 L 114 51.5 L 113 55.5 L 115 58.5 L 113.5 59 L 109 56.5 L 110 54 Q 107.3 55.1 108 52.5 L 110 49.5 L 109 45.5 L 104.5 41 L 89.5 37 L 81.5 37 L 76 39 Q 77.1 41.7 74.5 41 L 71.5 46 Q 69.3 46.8 70 44.5 L 71 42 Q 73.7 43.1 73 40.5 L 81.5 35 Z " /><path fill="rgb(242,244,246)" stroke="rgb(242,244,246)" stroke-width="1" opacity="1" d="M 54.5 45 L 58.5 45 L 67.5 50 L 71 50 L 71.5 47 L 72 49.5 L 67.5 52 L 60.5 47 L 54.5 46 L 44 54.5 Q 43 60 46.5 61 L 52 64 L 53 69 L 36.5 67 Q 27.3 68.8 23 75.5 L 21 82.5 L 27.5 93 L 30.5 95 L 40.5 102 L 42.5 102 L 47.5 103 L 51.5 101 L 58.5 101 L 66.5 99 L 67.5 102 Q 72.1 101.4 73.5 104 L 75.5 104 L 79.5 105 L 81.5 105 L 91.5 103 L 96.5 104 L 98.5 104 L 102.5 101 L 105 102 Q 103.9 99.3 106.5 100 L 108.5 100 L 116.5 96 L 118.5 97 L 118.5 95 L 122 95 Q 120.9 92.3 123.5 93 Q 124.6 90.3 128 91 Q 126.5 87.3 129.5 88 L 134 81.5 L 133 79.5 L 134 77.5 Q 130.1 69.9 120.5 68 L 118.5 68 Q 100.2 68.2 91.5 78 L 94.5 74 L 106.5 68 L 119.5 66 Q 121 68.5 126.5 67 L 134 72.5 L 135 76 Q 138.3 74.7 137 79.5 L 137 81.5 L 138 84.5 L 134 86.5 L 134.5 88 Q 131.5 87.2 133 91 L 130.5 91 L 129.5 94 L 123 97.5 L 123.5 99 L 121.5 98 L 121 100 L 113.5 103 L 112 102.5 Q 112.9 105.5 108.5 104 L 105.5 106 L 103.5 106 L 98.5 105 L 96.5 106 L 94.5 106 L 88.5 105 L 81.5 107 L 76.5 106 L 72.5 105 L 70.5 105 L 64.5 103 L 62.5 103 L 52.5 103 L 45.5 105 L 42.5 104 L 40.5 104 L 34 103 L 34 101 Q 30.2 102.5 31 99.5 L 28 98.5 L 28.5 97 L 25 95.5 Q 25.8 93.3 23.5 94 L 19 86.5 L 19 80.5 L 26.5 70 L 34.5 66 L 42.5 66 L 47.5 67 L 50 66 L 48.5 63 L 42 58.5 L 45 51 L 54.5 45 Z " /><path fill="rgb(242,244,246)" stroke="rgb(242,244,246)" stroke-width="1" opacity="1" d="M 73.5 69 L 79 69.5 L 73.5 70 L 73.5 69 Z " /><path fill="rgb(242,244,246)" stroke="rgb(242,244,246)" stroke-width="1" opacity="1" d="M 67.5 71 L 69 71.5 L 64.5 74 L 64 72 L 67.5 71 Z " /><path fill="rgb(242,244,246)" stroke="rgb(242,244,246)" stroke-width="1" opacity="1" d="M 62.5 74 L 58.5 79 L 58 77.5 L 59 75 L 62.5 74 Z " /><path fill="rgb(242,244,246)" stroke="rgb(242,244,246)" stroke-width="1" opacity="1" d="M 75.5 75 Q 83 75 87 78.5 Q 86.3 80.8 88.5 80 L 90 79.5 Q 89.5 83.5 84.5 83 L 80 79.5 L 78.5 77 L 66.5 78 L 60.5 81 L 61.5 79 L 75.5 75 Z " /><path fill="rgb(242,244,246)" stroke="rgb(242,244,246)" stroke-width="1" opacity="1" d="M 57.5 80 L 58.5 82 Q 55.7 82.7 57.5 80 Z " /><path fill="rgb(246,247,248)" stroke="rgb(246,247,248)" stroke-width="1" opacity="1" d="M 81.5 37 L 89.5 37 L 99.5 39 Q 106 40.5 109 45.5 L 110 49.5 L 108 54 Q 110.7 52.9 110 55.5 L 109.5 57 L 113 58.5 L 108 59 Q 109.1 56.3 106.5 57 L 106.5 56 L 108 55.5 L 105 50.5 L 106 45.5 L 94.5 39 L 82.5 38 L 78 39 L 76 44 L 73 45.5 L 73 49.5 L 70 54 L 67.5 55 L 63 49.5 L 64.5 50 L 67.5 52 L 72 49.5 L 71 46.5 L 74.5 41 L 77.5 39 L 81.5 37 Z " /><path fill="rgb(246,247,248)" stroke="rgb(246,247,248)" stroke-width="1" opacity="1" d="M 54.5 46 L 58 46.5 L 54.5 47 L 54.5 46 Z " /><path fill="rgb(246,247,248)" stroke="rgb(246,247,248)" stroke-width="1" opacity="1" d="M 59.5 47 L 62 48.5 L 60.5 48 L 59.5 47 Z " /><path fill="rgb(246,247,248)" stroke="rgb(246,247,248)" stroke-width="1" opacity="1" d="M 50.5 48 L 47 52.5 L 45 57.5 L 47 60.5 L 44 58.5 L 44 54.5 L 50.5 48 Z " /><path fill="rgb(246,247,248)" stroke="rgb(246,247,248)" stroke-width="1" opacity="1" d="M 48.5 61 L 55 65 Q 56.5 70.4 53.5 72 L 46.5 69 L 44.5 69 L 36.5 68 L 30.5 70 L 30.5 69 L 36.5 67 L 41.5 67 L 53 69 L 52 64 L 48.5 61 Z " /><path fill="rgb(246,247,248)" stroke="rgb(246,247,248)" stroke-width="1" opacity="1" d="M 67.5 68 L 68 70.5 L 64 72 Q 65.1 74.7 62.5 74 L 59 75 L 57.5 78 L 57 76.5 L 65 70.5 Q 64.3 68.3 66.5 69 L 67.5 68 Z " /><path fill="rgb(246,247,248)" stroke="rgb(246,247,248)" stroke-width="1" opacity="1" d="M 73.5 68 L 76 68.5 L 72.5 70 L 73.5 68 Z " /><path fill="rgb(246,247,248)" stroke="rgb(246,247,248)" stroke-width="1" opacity="1" d="M 113.5 68 Q 119.6 66.8 119 69.5 L 117.5 69 L 108.5 70 L 99.5 73 L 99.5 72 L 113.5 68 Z " /><path fill="rgb(246,247,248)" stroke="rgb(246,247,248)" stroke-width="1" opacity="1" d="M 120.5 68 Q 130.1 69.9 134 77.5 L 133 80.5 L 133 82.5 L 129.5 88 Q 126.5 87.2 128 91 L 125.5 91 L 122 93 Q 123.3 96.3 118.5 95 L 118.5 97 L 116.5 96 L 107.5 101 L 105 100 Q 106.1 102.7 103.5 102 L 102.5 101 L 99.5 104 L 97.5 103 L 92.5 104 L 90.5 104 L 81.5 105 L 79.5 105 L 74.5 103 L 72.5 103 L 66 100.5 L 66.5 99 L 44.5 103 L 41.5 101 L 39.5 101 L 37.5 101 L 29 94.5 L 30.5 94 Q 36.2 100.8 48.5 101 L 59.5 97 L 61 97.5 L 61.5 96 L 72.5 102 L 74.5 101 L 83.5 104 L 88 103 L 88.5 101 L 89.5 102 L 97.5 102 L 104.5 98 L 106.5 99 L 113.5 95 L 121 94 L 121.5 91 L 123 91.5 Q 121.8 87.8 125.5 89 L 128.5 84 L 130.5 85 L 131 82.5 L 131 75.5 L 129 75 L 129 73.5 Q 126.2 69.2 120 70 L 120.5 68 Z " /><path fill="rgb(246,247,248)" stroke="rgb(246,247,248)" stroke-width="1" opacity="1" d="M 28.5 70 L 28 71.5 Q 28.8 73.8 26.5 73 Q 22.1 74.6 23 81.5 L 24 86.5 L 26.5 90 L 28 89.5 L 28.5 92 L 30 91.5 Q 30.8 94.1 27.5 93 L 21 82.5 L 23 75.5 L 28.5 70 Z " /><path fill="rgb(246,247,248)" stroke="rgb(246,247,248)" stroke-width="1" opacity="1" d="M 94.5 75 L 93.5 77 L 94.5 75 Z " /><path fill="rgb(246,247,248)" stroke="rgb(246,247,248)" stroke-width="1" opacity="1" d="M 71.5 77 Q 78.3 75.3 80 78.5 L 82.5 82 L 86.5 83 L 89 81.5 L 86.5 86 L 83.5 84 Q 80.7 80.3 73.5 81 L 69.5 82 L 64.5 80 L 56 83 L 56.5 81 L 58.5 82 L 71.5 77 Z " /><path fill="rgb(237,240,242)" stroke="rgb(237,240,242)" stroke-width="1" opacity="1" d="M 82.5 33 Q 92.8 31.7 99.5 34 Q 109.5 37.5 115 45.5 L 117 52.5 L 117 59 L 114 57.5 L 113 55.5 L 114 51.5 L 113.5 49 Q 110.5 49.9 112 45.5 L 110 42 L 90.5 35 L 88.5 35 L 81.5 35 L 73 40.5 L 71 43.5 L 70 45.5 L 71 50 L 67.5 50 L 58.5 45 L 54.5 45 L 45 51 L 42 58.5 L 50 64.5 Q 50.8 66.8 48.5 66 L 43.5 67 L 35 65.5 L 46 65 Q 47.1 62.3 44.5 63 L 40 62 Q 40.4 51.2 48.5 47 L 53.5 44 L 59.5 44 L 66.5 48 L 70 48 L 68 43.5 Q 73.5 36.5 82.5 33 Z " /><path fill="rgb(237,240,242)" stroke="rgb(237,240,242)" stroke-width="1" opacity="1" d="M 116.5 64 L 118.5 65 L 120.5 64 L 129.5 66 L 135 69 L 136.5 72 Q 139.1 71.2 138 74.5 L 141 76 L 142 85.5 L 140 89.5 L 139 93 Q 135.3 91.5 136 94.5 L 128 100 Q 129.3 103 125.5 102 L 122.5 105 L 111.5 108 L 109.5 108 L 105.5 109 L 103.5 108 L 101.5 109 L 99.5 108 L 97.5 109 L 96.5 108 L 84.5 108 Q 83.2 110.3 78.5 109 L 76.5 109 L 68.5 107 Q 67 109.5 65.5 106 L 63.5 107 L 57.5 105 L 56.5 106 L 43.5 107 L 41.5 107 L 32.5 105 L 30.5 103 L 29.5 104 L 26.5 101 L 21 97.5 Q 16.6 93.9 16 86.5 L 19 76.5 L 24.5 70 L 33.5 66 L 33.5 67 Q 26.1 68.1 23 73.5 Q 17.9 76.9 19 86.5 L 23.5 94 Q 25.8 93.3 25 95.5 L 31 99.5 Q 30.2 102.5 34 101 L 34 103 L 37.5 103 L 41.5 105 L 44.5 104 L 46.5 105 Q 52.3 101.8 62.5 103 L 65.5 104 L 71.5 106 L 73.5 106 L 77.5 107 L 81.5 107 L 89.5 105 L 94.5 106 L 96.5 106 L 99.5 105 L 103.5 106 L 106.5 105 L 112 104 L 112.5 102 L 114.5 102 L 121 100 L 121.5 98 L 123.5 99 L 123.5 97 L 130 93.5 Q 127.7 92.3 130.5 91 L 133 91 Q 131.5 87.3 134.5 88 L 134.5 86 L 138 84.5 L 137 81.5 L 137 79.5 L 137 76 Q 134.3 77.1 135 74.5 L 132.5 71 L 126.5 67 L 115.5 66 L 101.5 70 L 87 80 L 85.5 77 L 75.5 75 L 62.5 79 L 62.5 78 Q 69.4 73.4 81.5 74 L 89.5 78 L 98.5 70 L 110.5 65 L 112.5 65 L 116.5 64 Z " /><path fill="rgb(237,240,242)" stroke="rgb(237,240,242)" stroke-width="1" opacity="1" d="M 92.5 70 L 91.5 72 L 92.5 70 Z " /><path fill="rgb(237,240,242)" stroke="rgb(237,240,242)" stroke-width="1" opacity="1" d="M 63.5 74 L 62.5 76 L 63.5 74 Z " /><path fill="rgb(237,240,242)" stroke="rgb(237,240,242)" stroke-width="1" opacity="1" d="M 59.5 78 Q 62.5 79.5 59.5 81 Q 57.3 81.8 58 79.5 L 59.5 78 Z " /><path fill="rgb(193,204,214)" stroke="rgb(193,204,214)" stroke-width="1" opacity="0.3333333333333333" d="M 82.5 26 L 88 26.5 L 76.5 29 Q 66.5 33 60.5 41 L 58.5 41 L 58.5 40 L 60.5 40 L 70.5 31 L 82.5 26 Z " /><path fill="rgb(193,204,214)" stroke="rgb(193,204,214)" stroke-width="1" opacity="0.3333333333333333" d="M 94.5 26 L 100.5 26 L 106.5 28 Q 116.1 31.9 122 39.5 L 129 51.5 L 130 60 Q 144.5 62.7 152 73.5 Q 160.4 82.1 158 101.5 Q 154.8 112.3 147.5 119 Q 139.8 126.8 126.5 129 L 74.5 129 L 74.5 128 L 126.5 128 Q 143.6 124.6 152 112.5 L 157 101.5 L 157 86.5 Q 153.7 73.8 144.5 67 L 129 59.5 L 128 51.5 Q 124.5 42 117.5 36 L 106.5 29 L 99.5 27 L 94.5 27 L 94.5 26 Z " /><path fill="rgb(193,204,214)" stroke="rgb(193,204,214)" stroke-width="1" opacity="0.3333333333333333" d="M 49.5 39 L 57 39.5 Q 41.3 39.3 35 48.5 L 31 55.5 L 30 62.5 L 28.5 64 Q 18.2 65.7 13 72.5 Q 6.3 78.8 5.5 91 L 5 85.5 Q 8.1 75.1 15.5 69 L 23.5 64 L 29 63 Q 29.9 50.2 38.5 44 L 49.5 39 Z " /><path fill="rgb(193,204,214)" stroke="rgb(193,204,214)" stroke-width="1" opacity="0.3333333333333333" d="M 5.5 98 Q 6.6 112.4 15.5 119 Q 21.5 125 31.5 127 L 73 127.5 L 31.5 128 Q 17.9 125.1 11 115.5 L 5 103.5 L 5.5 98 Z " /></svg>